<svg id="图层_1" data-name="图层 1" xmlns="http://www.w3.org/2000/svg" viewBox="0 0 51.79 9.98"><defs><style>.cls-1{fill:#3fa9f5;}</style></defs><path d="M558.89,216c0-.6,0-1.09,0-1.57h.92l.06.94h0a2,2,0,0,1,1.83-1.07,1.71,1.71,0,0,1,1.63,1.17h0a2.16,2.16,0,0,1,.65-.76,2,2,0,0,1,1.28-.41c.77,0,1.91.5,1.91,2.52v3.41h-1v-3.28c0-1.12-.41-1.78-1.26-1.78a1.37,1.37,0,0,0-1.25.94,1.84,1.84,0,0,0-.09.53v3.59h-1v-3.48c0-.92-.41-1.58-1.2-1.58a1.46,1.46,0,0,0-1.32,1.05,1.72,1.72,0,0,0-.08.52v3.49h-1Z" transform="translate(-558.84 -212.75)"/><path d="M574.15,217.27a2.84,2.84,0,0,1-2.88,3.09,2.76,2.76,0,0,1-2.79-3,2.83,2.83,0,0,1,2.88-3.08A2.74,2.74,0,0,1,574.15,217.27Zm-4.6.07c0,1.27.73,2.23,1.76,2.23s1.77-.95,1.77-2.27c0-1-.5-2.22-1.75-2.22S569.55,216.24,569.55,217.34Z" transform="translate(-558.84 -212.75)"/><path d="M580.51,214.42c0,.41,0,.88,0,1.59v3.37a3.37,3.37,0,0,1-.83,2.65,3.08,3.08,0,0,1-2.11.7,3.67,3.67,0,0,1-1.94-.48l.26-.81a3.31,3.31,0,0,0,1.71.47c1.08,0,1.87-.57,1.87-2v-.64h0a2.07,2.07,0,0,1-1.85,1,2.6,2.6,0,0,1-2.47-2.83,2.78,2.78,0,0,1,2.62-3.08,1.94,1.94,0,0,1,1.81,1h0l0-.87Zm-1.1,2.29a1.8,1.8,0,0,0-.06-.48,1.52,1.52,0,0,0-1.48-1.12c-1,0-1.73.85-1.73,2.2,0,1.13.59,2.09,1.72,2.09a1.55,1.55,0,0,0,1.47-1.09,2,2,0,0,0,.08-.56Z" transform="translate(-558.84 -212.75)"/><path d="M587.46,217.27a2.84,2.84,0,0,1-2.89,3.09,2.76,2.76,0,0,1-2.78-3,2.83,2.83,0,0,1,2.88-3.08A2.75,2.75,0,0,1,587.46,217.27Zm-4.6.07c0,1.27.73,2.23,1.76,2.23s1.76-.95,1.76-2.27c0-1-.49-2.22-1.74-2.22S582.86,216.24,582.86,217.34Z" transform="translate(-558.84 -212.75)"/><path class="cls-1" d="M588.8,216c0-.6,0-1.09,0-1.57h.93l.06,1h0a2.13,2.13,0,0,1,1.92-1.09c.79,0,2,.48,2,2.47v3.46h-1.05v-3.34c0-.94-.35-1.72-1.34-1.72a1.52,1.52,0,0,0-1.42,1.08,1.49,1.49,0,0,0-.07.49v3.49H588.8Z" transform="translate(-558.84 -212.75)"/><path class="cls-1" d="M600.71,217.27a2.84,2.84,0,0,1-2.89,3.09,2.77,2.77,0,0,1-2.79-3,2.84,2.84,0,0,1,2.88-3.08A2.75,2.75,0,0,1,600.71,217.27Zm-4.6.07c0,1.27.73,2.23,1.76,2.23s1.76-.95,1.76-2.27c0-1-.49-2.22-1.75-2.22S596.11,216.24,596.11,217.34Z" transform="translate(-558.84 -212.75)"/><path class="cls-1" d="M603.31,212.75v1.67h1.52v.8h-1.52v3.13c0,.72.21,1.13.8,1.13a1.87,1.87,0,0,0,.61-.08l0,.81a2.8,2.8,0,0,1-.95.14,1.45,1.45,0,0,1-1.13-.45,2.22,2.22,0,0,1-.41-1.51v-3.17h-.9v-.8h.9V213Z" transform="translate(-558.84 -212.75)"/><path class="cls-1" d="M606.53,217.51a1.86,1.86,0,0,0,2,2,4,4,0,0,0,1.61-.3l.18.75a4.63,4.63,0,0,1-1.93.37,2.71,2.71,0,0,1-2.86-2.93c0-1.75,1-3.13,2.73-3.13a2.45,2.45,0,0,1,2.39,2.73,2.72,2.72,0,0,1,0,.49Zm3.09-.75a1.49,1.49,0,0,0-1.45-1.71,1.73,1.73,0,0,0-1.62,1.71Z" transform="translate(-558.84 -212.75)"/></svg>